<svg xmlns="http://www.w3.org/2000/svg" xmlns:xlink="http://www.w3.org/1999/xlink" width="820" height="884.98"><rect width="820" height="884.98" rx="5" ry="5" class="a"/><svg y="0%" x="0%"><circle cx="20" cy="20" r="6" fill="#ff5f58"/><circle cx="40" cy="20" r="6" fill="#ffbd2e"/><circle cx="60" cy="20" r="6" fill="#18c132"/></svg><svg height="824.98" viewBox="0 0 78 82.498" width="780" x="15" xmlns="http://www.w3.org/2000/svg" xmlns:xlink="http://www.w3.org/1999/xlink" y="50"><style>@keyframes p{0%{transform:translateX(0)}15.1%{transform:translateX(-78px)}57.5%{transform:translateX(-624px)}}.a{fill:#fff}.g,.h,.i{fill:#1f2328;white-space:pre}.h,.i{fill:#008700}.i{fill:#0f0;font-weight:700}.j,.k,.l,.m{fill:#8a8a8a;white-space:pre}.k,.l,.m{fill:#d7ffd7}.l,.m{fill:#585858}.m{fill:#5fff87;font-weight:700}</style><g font-family="Monaco,Consolas,Menlo,'Bitstream Vera Sans Mono','Powerline Symbols',monospace" font-size="1.67"><defs><symbol id="1"><text y="1.67" style="white-space:pre" fill="#87ff87">$</text><text x="2.004" y="1.67" class="g">pecu</text><text x="7.014" y="1.67" class="g">send</text><text x="12.024" y="1.67" class="g">--to</text><text x="17.034" y="1.67" class="g">RComfCn4wHHsGR8vWBAU7T1r3tHHyxN9Hm</text><text x="52.104" y="1.67" class="g">--currency</text><text x="63.126" y="1.67" class="g">sdkcuralpha@</text><text x="76.152" y="1.67" class="g">--</text></symbol><symbol id="2"><text y="1.67" class="g">amount</text><text x="7.014" y="1.67" class="g">5</text><text x="9.018" y="1.67" class="g">--from</text><text x="16.032" y="1.67" class="g">demo</text><text x="21.042" y="1.67" class="g">--dry-run</text></symbol><symbol id="3"><text y="1.67" class="h">┌─</text><text x="3.006" y="1.67" class="i">REVIEW</text><text x="10.02" y="1.67" class="h">───────────────────────────────────────────────────────────────┐</text></symbol><symbol id="4"><text y="1.67" class="h">│</text><text x="2.004" y="1.67" class="j">from</text><text x="16.032" y="1.67" class="k">RDDQLEqnSA14MRuxE9BituXNXAu754Uu8X</text><text x="51.102" y="1.67" class="l">(demo)</text><text x="73.146" y="1.67" class="h">│</text></symbol><symbol id="5"><text y="1.67" class="h">│</text><text x="2.004" y="1.67" class="j">to</text><text x="16.032" y="1.67" class="m">RComfCn4wHHsGR8vWBAU7T1r3tHHyxN9Hm</text><text x="73.146" y="1.67" class="h">│</text></symbol><symbol id="6"><text y="1.67" class="h">│</text><text x="2.004" y="1.67" class="j">amount</text><text x="16.032" y="1.67" class="m">5.00000000</text><text x="27.054" y="1.67" class="l">sdkcuralpha@</text><text x="73.146" y="1.67" class="h">│</text></symbol><symbol id="7"><text y="1.67" class="h">│</text><text x="2.004" y="1.67" class="j">currency</text><text x="11.022" y="1.67" class="j">id</text><text x="16.032" y="1.67" class="k">i7UCaJkKRFXBCK4S1AMrkfKTnPwdLc7dV7</text><text x="73.146" y="1.67" class="h">│</text></symbol><symbol id="8"><text y="1.67" class="h">│</text><text x="2.004" y="1.67" class="j">fee</text><text x="16.032" y="1.67" class="k">0.00010200</text><text x="27.054" y="1.67" class="l">VRSCTEST</text><text x="73.146" y="1.67" class="h">│</text></symbol><symbol id="9"><text y="1.67" class="h">│</text><text x="2.004" y="1.67" class="j">change</text><text x="16.032" y="1.67" class="k">129.99989800</text><text x="29.058" y="1.67" class="l">VRSCTEST</text><text x="73.146" y="1.67" class="h">│</text></symbol><symbol id="10"><text y="1.67" class="h">│</text><text x="2.004" y="1.67" class="j">txid</text><text x="16.032" y="1.67" class="k">6460fc9608373761364350e9555b6cdaef1fe7fec4eed525eea68276</text><text x="73.146" y="1.67" class="h">│</text></symbol><symbol id="11"><text y="1.67" class="h">│</text><text x="16.032" y="1.67" class="k">7c40accd</text><text x="73.146" y="1.67" class="h">│</text></symbol><symbol id="12"><text y="1.67" class="h">│</text><text x="2.004" y="1.67" class="j">expiry</text><text x="16.032" y="1.67" class="k">height</text><text x="23.046" y="1.67" class="k">1,201,765</text><text x="73.146" y="1.67" class="h">│</text></symbol><symbol id="13"><text y="1.67" class="h">├─</text><text x="3.006" y="1.67" class="i">OUTPUTS</text><text x="11.022" y="1.67" class="i">AS</text><text x="14.028" y="1.67" class="i">BUILT</text><text x="20.04" y="1.67" class="h">─────────────────────────────────────────────────────┤</text></symbol><symbol id="14"><text y="1.67" class="h">│</text><text x="2.004" y="1.67" class="l">#0</text><text x="5.01" y="1.67" class="m">0.00000000</text><text x="16.032" y="1.67" class="l">VRSCTEST</text><text x="73.146" y="1.67" class="h">│</text></symbol><symbol id="15"><text y="1.67" class="h">│</text><text x="7.014" y="1.67" class="l">→</text><text x="9.018" y="1.67" class="k">RComfCn4wHHsGR8vWBAU7T1r3tHHyxN9Hm</text><text x="44.088" y="1.67" class="m">holds</text><text x="50.1" y="1.67" class="m">5.00000000</text><text x="73.146" y="1.67" class="h">│</text></symbol><symbol id="16"><text y="1.67" class="h">│</text><text x="7.014" y="1.67" class="m">i7UCaJkKR…7dV7</text><text x="73.146" y="1.67" class="h">│</text></symbol><symbol id="17"><text y="1.67" class="h">│</text><text x="2.004" y="1.67" class="l">#1</text><text x="5.01" y="1.67" class="m">0.00000000</text><text x="16.032" y="1.67" class="l">VRSCTEST</text><text x="73.146" y="1.67" class="h">│</text></symbol><symbol id="18"><text y="1.67" class="h">│</text><text x="7.014" y="1.67" class="l">→</text><text x="9.018" y="1.67" class="k">RDDQLEqnSA14MRuxE9BituXNXAu754Uu8X</text><text x="44.088" y="1.67" class="m">holds</text><text x="50.1" y="1.67" class="m">20.00000000</text><text x="73.146" y="1.67" class="h">│</text></symbol><symbol id="19"><text y="1.67" class="h">│</text><text x="2.004" y="1.67" class="l">#2</text><text x="5.01" y="1.67" class="m">129.99989800</text><text x="18.036" y="1.67" class="l">VRSCTEST</text><text x="73.146" y="1.67" class="h">│</text></symbol><symbol id="20"><text y="1.67" class="h">│</text><text x="7.014" y="1.67" class="l">→</text><text x="9.018" y="1.67" class="k">RDDQLEqnSA14MRuxE9BituXNXAu754Uu8X</text><text x="73.146" y="1.67" class="h">│</text></symbol><symbol id="21"><text y="1.67" class="h">└────────────────────────────────────────────────────────────────────────┘</text></symbol><symbol id="22"><text y="1.67" class="h">┌─</text><text x="3.006" y="1.67" class="i">SIGNED</text><text x="10.02" y="1.67" class="i">TRANSACTION</text><text x="22.044" y="1.67" class="h">───────────────────────────────────────────────────┐</text></symbol><symbol id="23"><text y="1.67" class="h">│</text><text x="2.004" y="1.67" class="k">0400008085202f8902bd155d8209972e07ccf39228934cdb85a7d3c762f757a46a02a7</text><text x="73.146" y="1.67" class="h">│</text></symbol><symbol id="24"><text y="1.67" class="h">│</text><text x="2.004" y="1.67" class="k">38ca0b49777c00000000694c67010101012102f006b56242f2f687378b3b50e47196ad</text><text x="73.146" y="1.67" class="h">│</text></symbol><symbol id="25"><text y="1.67" class="h">│</text><text x="2.004" y="1.67" class="k">1754fc8ccb18ef6e69e6cdf01150258e40634290a7e73f1f710b4106caeb7b26fca27a</text><text x="73.146" y="1.67" class="h">│</text></symbol><symbol id="26"><text y="1.67" class="h">│</text><text x="2.004" y="1.67" class="k">2a226595eea6a0d3d7088a381f4471d7a196f272751c3198127599782a8f70c8e5b3b4</text><text x="73.146" y="1.67" class="h">│</text></symbol><symbol id="27"><text y="1.67" class="h">│</text><text x="2.004" y="1.67" class="k">c4d893f38595526505ffbeffffffff999de722574cf36597262c56504a77e4a80ea68e</text><text x="73.146" y="1.67" class="h">│</text></symbol><symbol id="28"><text y="1.67" class="h">│</text><text x="2.004" y="1.67" class="k">44b3d4463ad7292d004197bb010000006a47304402201f4d66539fd799227b95e6ed54</text><text x="73.146" y="1.67" class="h">│</text></symbol><symbol id="29"><text y="1.67" class="h">│</text><text x="2.004" y="1.67" class="k">e352127c6f83e44997df628677fc23392ccf7002203b7f1ff04128d4d1448ff63fce64</text><text x="73.146" y="1.67" class="h">│</text></symbol><symbol id="30"><text y="1.67" class="h">│</text><text x="2.004" y="1.67" class="k">289dd00531e33ec055fef721754fa3335791012102f006b56242f2f687378b3b50e471</text><text x="73.146" y="1.67" class="h">│</text></symbol><symbol id="31"><text y="1.67" class="h">│</text><text x="2.004" y="1.67" class="k">96ad1754fc8ccb18ef6e69e6cdf01150258effffffff030000000000000000531a0403</text><text x="73.146" y="1.67" class="h">│</text></symbol><symbol id="32"><text y="1.67" class="h">│</text><text x="2.004" y="1.67" class="k">0001011426b0e358416b55160b5d0ec55ca18e4be15d593bcc3504030901011426b0e3</text><text x="73.146" y="1.67" class="h">│</text></symbol><symbol id="33"><text y="1.67" class="h">│</text><text x="2.004" y="1.67" class="k">58416b55160b5d0ec55ca18e4be15d593b1a012bd0c2dcf49d034269ad0cd786c01bdd</text><text x="73.146" y="1.67" class="h">│</text></symbol><symbol id="34"><text y="1.67" class="h">│</text><text x="2.004" y="1.67" class="k">4bc2f9d680edb4c900750000000000000000531a0403000101142b29117b5525e47df5</text><text x="73.146" y="1.67" class="h">│</text></symbol><symbol id="35"><text y="1.67" class="h">│</text><text x="2.004" y="1.67" class="k">3fcf9d5dc5fe8568eb9038cc350403090101142b29117b5525e47df53fcf9d5dc5fe85</text><text x="73.146" y="1.67" class="h">│</text></symbol><symbol id="36"><text y="1.67" class="h">│</text><text x="2.004" y="1.67" class="k">68eb90381a012bd0c2dcf49d034269ad0cd786c01bdd4bc2f9d686b8d5a70075281adc</text><text x="73.146" y="1.67" class="h">│</text></symbol><symbol id="a"><path fill="transparent" d="M0 0h78v39H0z"/></symbol><symbol id="b"><path fill="#0969da" d="M0 0h1.102v2.171H0z"/></symbol></defs><path class="a" d="M0 0h78v82.498H0z"/><g style="animation-duration:4.709s;animation-iteration-count:infinite;animation-name:p;animation-timing-function:steps(1,end)"><svg width="702"><svg><use xlink:href="#a"/><use xlink:href="#b" x="-.004"/></svg><svg x="78"><use xlink:href="#a"/><use xlink:href="#b" x="-.004" y="4.317"/><use xlink:href="#1"/><use xlink:href="#2" y="2.171"/></svg><svg x="156"><use xlink:href="#a"/><use xlink:href="#b" x="15.996" y="15.172"/><use xlink:href="#1"/><use xlink:href="#2" y="2.171"/><use xlink:href="#3" y="4.342"/><use xlink:href="#4" y="6.513"/><use xlink:href="#5" y="8.684"/><use xlink:href="#6" y="10.855"/><use xlink:href="#7" y="13.026"/><text y="16.867" class="h">│</text><text x="2.004" y="16.867" class="j">fee</text></svg><svg x="234"><use xlink:href="#a"/><use xlink:href="#b" x="3.996" y="28.198"/><use xlink:href="#1"/><use xlink:href="#2" y="2.171"/><use xlink:href="#3" y="4.342"/><use xlink:href="#4" y="6.513"/><use xlink:href="#5" y="8.684"/><use xlink:href="#6" y="10.855"/><use xlink:href="#7" y="13.026"/><use xlink:href="#8" y="15.197"/><use xlink:href="#9" y="17.368"/><use xlink:href="#10" y="19.539"/><use xlink:href="#11" y="21.71"/><use xlink:href="#12" y="23.881"/><use xlink:href="#13" y="26.052"/><text y="29.893" class="h">│</text><text x="2.004" y="29.893" class="l">#0</text></svg><svg x="312"><use xlink:href="#a"/><use xlink:href="#b" x="17.996" y="41.224"/><use xlink:href="#1"/><use xlink:href="#2" y="2.171"/><use xlink:href="#3" y="4.342"/><use xlink:href="#4" y="6.513"/><use xlink:href="#5" y="8.684"/><use xlink:href="#6" y="10.855"/><use xlink:href="#7" y="13.026"/><use xlink:href="#8" y="15.197"/><use xlink:href="#9" y="17.368"/><use xlink:href="#10" y="19.539"/><use xlink:href="#11" y="21.71"/><use xlink:href="#12" y="23.881"/><use xlink:href="#13" y="26.052"/><use xlink:href="#14" y="28.223"/><use xlink:href="#15" y="30.394"/><use xlink:href="#16" y="32.565"/><use xlink:href="#17" y="34.736"/><use xlink:href="#18" y="36.907"/><use xlink:href="#16" y="39.078"/><text y="42.919" class="h">│</text><text x="2.004" y="42.919" class="l">#2</text><text x="5.01" y="42.919" class="m">129.99989800</text></svg><svg x="390"><use xlink:href="#a"/><use xlink:href="#b" x="-.004" y="49.908"/><use xlink:href="#1"/><use xlink:href="#2" y="2.171"/><use xlink:href="#3" y="4.342"/><use xlink:href="#4" y="6.513"/><use xlink:href="#5" y="8.684"/><use xlink:href="#6" y="10.855"/><use xlink:href="#7" y="13.026"/><use xlink:href="#8" y="15.197"/><use xlink:href="#9" y="17.368"/><use xlink:href="#10" y="19.539"/><use xlink:href="#11" y="21.71"/><use xlink:href="#12" y="23.881"/><use xlink:href="#13" y="26.052"/><use xlink:href="#14" y="28.223"/><use xlink:href="#15" y="30.394"/><use xlink:href="#16" y="32.565"/><use xlink:href="#17" y="34.736"/><use xlink:href="#18" y="36.907"/><use xlink:href="#16" y="39.078"/><use xlink:href="#19" y="41.249"/><use xlink:href="#20" y="43.42"/><use xlink:href="#21" y="45.591"/></svg><svg x="468"><use xlink:href="#a"/><use xlink:href="#b" x="-.004" y="65.105"/><use xlink:href="#1"/><use xlink:href="#2" y="2.171"/><use xlink:href="#3" y="4.342"/><use xlink:href="#4" y="6.513"/><use xlink:href="#5" y="8.684"/><use xlink:href="#6" y="10.855"/><use xlink:href="#7" y="13.026"/><use xlink:href="#8" y="15.197"/><use xlink:href="#9" y="17.368"/><use xlink:href="#10" y="19.539"/><use xlink:href="#11" y="21.71"/><use xlink:href="#12" y="23.881"/><use xlink:href="#13" y="26.052"/><use xlink:href="#14" y="28.223"/><use xlink:href="#15" y="30.394"/><use xlink:href="#16" y="32.565"/><use xlink:href="#17" y="34.736"/><use xlink:href="#18" y="36.907"/><use xlink:href="#16" y="39.078"/><use xlink:href="#19" y="41.249"/><use xlink:href="#20" y="43.42"/><use xlink:href="#21" y="45.591"/><use xlink:href="#22" y="49.933"/><use xlink:href="#23" y="52.104"/><use xlink:href="#24" y="54.275"/><use xlink:href="#25" y="56.446"/><use xlink:href="#26" y="58.617"/><use xlink:href="#27" y="60.788"/><use xlink:href="#28" y="62.959"/></svg><svg x="546"><use xlink:href="#a"/><use xlink:href="#b" x="12.996" y="82.473"/><use xlink:href="#1"/><use xlink:href="#2" y="2.171"/><use xlink:href="#3" y="4.342"/><use xlink:href="#4" y="6.513"/><use xlink:href="#5" y="8.684"/><use xlink:href="#6" y="10.855"/><use xlink:href="#7" y="13.026"/><use xlink:href="#8" y="15.197"/><use xlink:href="#9" y="17.368"/><use xlink:href="#10" y="19.539"/><use xlink:href="#11" y="21.71"/><use xlink:href="#12" y="23.881"/><use xlink:href="#13" y="26.052"/><use xlink:href="#14" y="28.223"/><use xlink:href="#15" y="30.394"/><use xlink:href="#16" y="32.565"/><use xlink:href="#17" y="34.736"/><use xlink:href="#18" y="36.907"/><use xlink:href="#16" y="39.078"/><use xlink:href="#19" y="41.249"/><use xlink:href="#20" y="43.42"/><use xlink:href="#21" y="45.591"/><use xlink:href="#22" y="49.933"/><use xlink:href="#23" y="52.104"/><use xlink:href="#24" y="54.275"/><use xlink:href="#25" y="56.446"/><use xlink:href="#26" y="58.617"/><use xlink:href="#27" y="60.788"/><use xlink:href="#28" y="62.959"/><use xlink:href="#29" y="65.13"/><use xlink:href="#30" y="67.301"/><use xlink:href="#31" y="69.472"/><use xlink:href="#32" y="71.643"/><use xlink:href="#33" y="73.814"/><use xlink:href="#34" y="75.985"/><use xlink:href="#35" y="78.156"/><use xlink:href="#36" y="80.327"/><text y="84.168" class="h">│</text><text x="2.004" y="84.168" class="k">06030000001</text></svg><svg x="624"><use xlink:href="#a"/><use xlink:href="#b" x="-.004" y="82.473"/><use xlink:href="#6"/><use xlink:href="#7" y="2.171"/><use xlink:href="#8" y="4.342"/><use xlink:href="#9" y="6.513"/><use xlink:href="#10" y="8.684"/><use xlink:href="#11" y="10.855"/><use xlink:href="#12" y="13.026"/><use xlink:href="#13" y="15.197"/><use xlink:href="#14" y="17.368"/><use xlink:href="#15" y="19.539"/><use xlink:href="#16" y="21.71"/><use xlink:href="#17" y="23.881"/><use xlink:href="#18" y="26.052"/><use xlink:href="#16" y="28.223"/><use xlink:href="#19" y="30.394"/><use xlink:href="#20" y="32.565"/><use xlink:href="#21" y="34.736"/><use xlink:href="#22" y="39.078"/><use xlink:href="#23" y="41.249"/><use xlink:href="#24" y="43.42"/><use xlink:href="#25" y="45.591"/><use xlink:href="#26" y="47.762"/><use xlink:href="#27" y="49.933"/><use xlink:href="#28" y="52.104"/><use xlink:href="#29" y="54.275"/><use xlink:href="#30" y="56.446"/><use xlink:href="#31" y="58.617"/><use xlink:href="#32" y="60.788"/><use xlink:href="#33" y="62.959"/><use xlink:href="#34" y="65.13"/><use xlink:href="#35" y="67.301"/><use xlink:href="#36" y="69.472"/><text y="73.313" class="h">│</text><text x="2.004" y="73.313" class="k">06030000001976a9142b29117b5525e47df53fcf9d5dc5fe8568eb903888ac00000000</text><text x="73.146" y="73.313" class="h">│</text><text y="75.484" class="h">│</text><text x="2.004" y="75.484" class="k">655612000000000000000000000000</text><text x="73.146" y="75.484" class="h">│</text><use xlink:href="#21" y="75.985"/><text x="2.004" y="79.826" class="l">▸</text><text x="4.008" y="79.826" class="l">nothing</text><text x="12.024" y="79.826" class="l">was</text><text x="16.032" y="79.826" class="l">broadcast.</text><text x="27.054" y="79.826" class="l">`pecu</text><text x="33.066" y="79.826" class="l">tx</text><text x="36.072" y="79.826" class="l">explain</text><text x="44.088" y="79.826" class="l">&lt;hex&gt;`</text><text x="51.102" y="79.826" class="l">reads</text><text x="57.114" y="79.826" class="l">this</text><text x="62.124" y="79.826" class="l">back,</text><text x="68.136" y="79.826" class="l">and</text><text x="72.144" y="79.826" class="l">`--jso</text><text y="81.997" class="l">n`</text><text x="3.006" y="81.997" class="l">gives</text><text x="9.018" y="81.997" class="l">it</text><text x="12.024" y="81.997" class="l">unwrapped</text></svg></svg></g></g></svg></svg>